# xmcd
#
# Track frame offsets:
#       150
#       15121
#       52571
#       87715
#       116831
#
# Disc length: 2145 seconds
#
# Revision: 1
# Processed by: cddbd v1.5.1PL0 Copyright (c) Steve Scherf et al.
# Submitted via: WaveLab 4.01
#
DISCID=2f085f05
DTITLE=Digital Rockers - I believe (Maxi)
DYEAR=2003
DGENRE=Komerz-Dance
TTITLE0=Digital Rockers - I believe (Radio Cut)
TTITLE1=Digital Rockers - I believe (Clubversion)
TTITLE2=Digital Rockers - I believe (DJ Cosmo Remix)
TTITLE3=Digital Rockers - I believe (Master Blaster Remix)
TTITLE4=Digital Rockers - I believe (Pulsedriver Remix)
EXTD=
EXTT0=
EXTT1=
EXTT2=
EXTT3=
EXTT4=
PLAYORDER=
